<svg width="36.000000" height="34.000000" viewBox="0 0 36 34" fill="none" xmlns="http://www.w3.org/2000/svg" xmlns:xlink="http://www.w3.org/1999/xlink">
	<desc>
			Created with Pixso.
	</desc>
	<defs/>
	<rect id="vk" rx="9.861150" width="35.722298" height="33.722298" transform="translate(0.138851 0.138851)" fill="#2787F5" fill-opacity="1.000000"/>
	<path id="Vector" d="M28.38 11.82C28.53 11.34 28.38 11 27.65 11L25.26 11C24.65 11 24.37 11.3 24.22 11.63C24.22 11.63 23 14.41 21.28 16.22C20.72 16.75 20.46 16.91 20.16 16.91C20.01 16.91 19.79 16.75 19.79 16.27L19.79 11.82C19.79 11.25 19.61 11 19.1 11L15.34 11C14.96 11 14.73 11.26 14.73 11.51C14.73 12.05 15.59 12.18 15.68 13.7L15.68 17.01C15.68 17.73 15.54 17.86 15.24 17.86C14.43 17.86 12.45 15.07 11.28 11.87C11.05 11.25 10.82 11 10.21 11L7.82 11C7.13 11 7 11.3 7 11.63C7 12.23 7.81 15.18 10.77 19.08C12.75 21.74 15.54 23.19 18.08 23.19C19.6 23.19 19.79 22.87 19.79 22.31L19.79 20.3C19.79 19.66 19.93 19.53 20.41 19.53C20.77 19.53 21.38 19.7 22.8 20.98C24.42 22.5 24.69 23.19 25.6 23.19L28 23.19C28.68 23.19 29.02 22.87 28.83 22.23C28.61 21.6 27.83 20.69 26.81 19.6C26.25 18.98 25.41 18.32 25.16 17.98C24.8 17.56 24.9 17.36 25.16 16.98C25.16 16.98 28.07 13.13 28.38 11.82Z" fill="#FFFFFF" fill-opacity="1.000000" fill-rule="evenodd"/>
</svg>
