<svg width="211.313538" height="60.000000" viewBox="0 0 211.314 60" fill="none" xmlns="http://www.w3.org/2000/svg" xmlns:xlink="http://www.w3.org/1999/xlink">
	<desc>
			Created with Pixso.
	</desc>
	<defs/>
	<rect id="button" rx="0.000000" width="210.313538" height="59.000000" transform="translate(0.500000 0.500000)" fill="#000000" fill-opacity="1.000000"/>
	<path id="Vector" d="M40.65 10.26C35.23 10.21 30.01 12.3 26.14 16.1C22.26 19.89 20.05 25.06 20 30.49C20.02 34.77 21.39 38.94 23.93 42.39C26.47 45.84 30.03 48.4 34.12 49.7C35.15 49.88 35.53 49.26 35.53 48.72C35.53 48.18 35.53 46.97 35.53 45.28C29.78 46.5 28.56 42.58 28.56 42.58C28.18 41.35 27.36 40.29 26.27 39.61C24.39 38.37 26.42 38.39 26.42 38.39C27.07 38.48 27.69 38.71 28.23 39.07C28.78 39.43 29.24 39.91 29.57 40.48C30.16 41.49 31.11 42.23 32.24 42.54C33.36 42.85 34.56 42.71 35.58 42.15C35.69 41.12 36.15 40.16 36.9 39.44C32.31 38.94 27.51 37.21 27.51 29.45C27.47 27.43 28.21 25.47 29.59 23.99C28.96 22.25 29.04 20.34 29.8 18.65C29.8 18.65 31.54 18.11 35.43 20.72C38.82 19.82 42.38 19.82 45.76 20.72C49.7 18.11 51.39 18.65 51.39 18.65C52.15 20.34 52.23 22.25 51.6 23.99C53.01 25.44 53.8 27.39 53.8 29.42C53.8 37.19 48.95 38.9 44.41 39.41C44.91 39.89 45.29 40.48 45.53 41.13C45.78 41.77 45.87 42.47 45.82 43.16L45.82 48.7C45.82 48.7 46.19 49.88 47.22 49.68C51.3 48.37 54.85 45.81 57.38 42.37C59.91 38.92 61.28 34.76 61.31 30.49C61.25 25.06 59.04 19.89 55.17 16.1C51.29 12.3 46.07 10.21 40.65 10.26Z" fill="#FFFFFF" fill-opacity="1.000000" fill-rule="nonzero"/>
	<path id="Профиль Github" d="M160.15 25.79C160.15 26.23 159.77 26.58 159.31 26.58C158.85 26.58 158.48 26.23 158.48 25.79C158.48 25.35 158.85 25 159.31 25C159.77 25 160.15 25.35 160.15 25.79ZM156.23 28.5L154.96 28.5C154.53 27.16 153.52 26.33 152.05 26.33C150.24 26.33 148.79 27.76 148.79 30.41C148.79 33.05 150.24 34.48 152.13 34.48C153.86 34.48 155.06 33.33 155.1 31.5L152.41 31.5L152.41 30.41L156.29 30.41L156.29 31.5C156.29 34.02 154.56 35.64 152.13 35.64C149.43 35.64 147.6 33.63 147.6 30.41C147.6 27.18 149.44 25.17 152.05 25.17C154.2 25.17 155.85 26.53 156.23 28.5ZM83.21 25.31L90.8 25.31L90.8 35.5L89.57 35.5L89.57 26.41L84.44 26.41L84.44 35.5L83.21 35.5L83.21 25.31ZM114.29 38.1L113.12 38.1L113.12 35.66C111.05 35.66 109.65 34.08 109.65 31.72C109.65 29.33 111.05 27.76 113.12 27.76L113.12 25.31L114.29 25.31L114.29 27.76C116.36 27.76 117.75 29.33 117.75 31.72C117.75 34.08 116.36 35.66 114.29 35.66L114.29 38.1ZM170.47 28.81C169.31 28.81 168.46 29.57 168.46 30.9L168.46 35.5L167.29 35.5L167.29 25.31L168.46 25.31L168.46 29.05L168.56 29.05C168.92 28.26 169.6 27.76 170.81 27.76C172.37 27.76 173.41 28.68 173.41 30.64L173.41 35.5L172.24 35.5L172.24 30.72C172.24 29.51 171.57 28.81 170.47 28.81ZM184.98 35.5L183.85 35.5L183.85 25.31L185.02 25.31L185.02 29.07L185.12 29.07C185.38 28.67 185.84 27.76 187.33 27.76C189.26 27.76 190.59 29.29 190.59 31.7C190.59 34.12 189.26 35.66 187.35 35.66C185.88 35.66 185.38 34.74 185.12 34.32L184.98 34.32L184.98 35.5ZM163.73 27.86L165.36 27.86L165.36 28.85L163.73 28.85L163.73 33.31C163.73 34.3 164.22 34.46 164.74 34.46C165 34.46 165.16 34.42 165.26 34.4L165.5 35.45C165.34 35.52 165.06 35.59 164.62 35.59C163.63 35.59 162.55 34.96 162.55 33.63L162.55 28.85L161.4 28.85L161.4 27.86L162.55 27.86L162.55 26.03L163.73 26.03L163.73 27.86ZM94.3 38.36L93.13 38.36L93.13 27.86L94.26 27.86L94.26 29.07L94.4 29.07C94.66 28.67 95.12 27.76 96.61 27.76C98.54 27.76 99.87 29.29 99.87 31.7C99.87 34.12 98.54 35.66 96.63 35.66C95.16 35.66 94.66 34.74 94.4 34.32L94.3 34.32L94.3 38.36ZM108.22 31.72C108.22 34.08 106.83 35.66 104.76 35.66C102.7 35.66 101.3 34.08 101.3 31.72C101.3 29.33 102.7 27.76 104.76 27.76C106.83 27.76 108.22 29.33 108.22 31.72ZM120.71 27.86L120.71 33.77L124.39 27.86L125.74 27.86L125.74 35.5L124.57 35.5L124.57 29.59L120.91 35.5L119.54 35.5L119.54 27.86L120.71 27.86ZM127.61 35.5L127.21 35.5L127.21 34.4L127.49 34.4C128.41 34.4 128.67 33.8 128.77 31.24L128.91 27.86L134 27.86L134 35.5L132.82 35.5L132.82 28.95L130.02 28.95L129.9 31.68C129.79 34.18 129.3 35.5 127.61 35.5ZM137.32 27.86L137.32 30.62L139.35 30.62C141.14 30.62 142.11 31.64 142.11 33.03C142.11 34.4 141.14 35.5 139.35 35.5L136.14 35.5L136.14 27.86L137.32 27.86ZM159.89 35.5L158.71 35.5L158.71 27.86L159.89 27.86L159.89 35.5ZM178.4 34.46C179.28 34.46 180.37 33.8 180.37 32.37L180.37 27.86L181.54 27.86L181.54 35.5L180.37 35.5L180.37 34.2L180.29 34.2C179.93 34.98 179.18 35.59 178.03 35.59C176.59 35.59 175.56 34.66 175.56 32.71L175.56 27.86L176.73 27.86L176.73 32.63C176.73 33.75 177.43 34.46 178.4 34.46ZM96.47 28.81C95.04 28.81 94.28 29.97 94.28 31.68C94.28 33.41 95.06 34.6 96.47 34.6C97.94 34.6 98.7 33.31 98.7 31.68C98.7 30.07 97.96 28.81 96.47 28.81ZM102.48 31.72C102.48 33.25 103.19 34.6 104.76 34.6C106.33 34.6 107.05 33.25 107.05 31.72C107.05 30.19 106.33 28.81 104.76 28.81C103.19 28.81 102.48 30.19 102.48 31.72ZM110.83 31.72C110.83 33.25 111.54 34.6 113.12 34.6L113.12 28.81C111.54 28.81 110.83 30.19 110.83 31.72ZM114.29 28.81L114.29 34.6C115.86 34.6 116.58 33.25 116.58 31.72C116.58 30.19 115.86 28.81 114.29 28.81ZM187.19 28.81C185.76 28.81 185 29.97 185 31.68C185 33.41 185.78 34.6 187.19 34.6C188.67 34.6 189.42 33.31 189.42 31.68C189.42 30.07 188.69 28.81 187.19 28.81ZM139.35 31.72L137.32 31.72L137.32 34.4L139.35 34.4C140.28 34.4 140.94 33.86 140.94 33.09C140.94 32.28 140.28 31.72 139.35 31.72Z" fill="#FFFFFF" fill-opacity="1.000000" fill-rule="evenodd"/>
</svg>
