<svg width="36.000061" height="36.000000" viewBox="0 0 36.0001 36" fill="none" xmlns="http://www.w3.org/2000/svg" xmlns:xlink="http://www.w3.org/1999/xlink">
	<desc>
			Created with Pixso.
	</desc>
	<defs>
		<linearGradient x1="384.019684" y1="96.019257" x2="240.019501" y2="432.000183" id="paint_linear_3_75_0" gradientUnits="userSpaceOnUse">
			<stop stop-color="#37AEE2"/>
			<stop offset="1.000000" stop-color="#1E96C8"/>
		</linearGradient>
		<linearGradient x1="213.944489" y1="125.591492" x2="273.919006" y2="221.600754" id="paint_linear_3_78_0" gradientUnits="userSpaceOnUse">
			<stop stop-color="#EFF7FC"/>
			<stop offset="1.000000" stop-color="#FFFFFF"/>
		</linearGradient>
	</defs>
	<path id="Vector" d="M36 18C36 27.94 27.94 36 18 36C8.05 36 0 27.94 0 18C0 8.05 8.05 0 18 0C27.94 0 36 8.05 36 18Z" fill="url(#paint_linear_3_75_0)" fill-opacity="1.000000" fill-rule="evenodd"/>
	<path id="Vector" d="M14.7 26.25C14.11 26.25 14.21 26.02 14.01 25.47L12.3 19.83L25.5 12L14.7 26.25Z" fill="#C8DAEA" fill-opacity="1.000000" fill-rule="nonzero"/>
	<path id="Vector" d="M14.7 26.25C15.15 26.25 15.34 26.04 15.6 25.8L17.99 23.46L15 21.66L14.7 26.25Z" fill="#A9C9DD" fill-opacity="1.000000" fill-rule="nonzero"/>
	<path id="Vector" d="M15 21.66L22.25 27.02C23.08 27.47 23.68 27.24 23.89 26.25L26.84 12.33C27.14 11.12 26.38 10.57 25.59 10.93L8.25 17.62C7.06 18.09 7.07 18.75 8.03 19.05L12.48 20.43L22.78 13.94C23.27 13.64 23.71 13.8 23.35 14.12L15 21.66Z" fill="url(#paint_linear_3_78_0)" fill-opacity="1.000000" fill-rule="nonzero"/>
</svg>
