<svg width="35.071228" height="24.659454" viewBox="0 0 35.0712 24.6595" fill="none" xmlns="http://www.w3.org/2000/svg" xmlns:xlink="http://www.w3.org/1999/xlink">
	<desc>
			Created with Pixso.
	</desc>
	<defs>
		<linearGradient x1="4487.366211" y1="0.000000" x2="4487.366211" y2="4440.042969" id="paint_linear_3_82_0" gradientUnits="userSpaceOnUse">
			<stop stop-color="#E52D27"/>
			<stop offset="0.000100" stop-color="#D02122"/>
			<stop offset="0.380000" stop-color="#CA1D20"/>
			<stop offset="0.610000" stop-color="#C61B1F"/>
			<stop offset="1.000000" stop-color="#BF171D"/>
		</linearGradient>
	</defs>
	<path id="Vector" d="M34.7 5.31C34.7 5.31 34.35 2.9 33.3 1.83C31.97 0.43 30.48 0.43 29.78 0.35C24.89 0 17.54 0 17.54 0L17.52 0C17.52 0 10.17 0 5.25 0.35C4.57 0.43 3.08 0.43 1.73 1.83C0.69 2.9 0.35 5.31 0.35 5.31C0.35 5.31 0 8.16 0 11L0 13.65C0 16.49 0.35 19.33 0.35 19.33C0.35 19.33 0.69 21.74 1.75 22.81C3.08 24.2 4.83 24.16 5.61 24.3C8.42 24.57 17.52 24.65 17.52 24.65C17.52 24.65 24.89 24.64 29.79 24.28C30.48 24.2 31.97 24.2 33.31 22.81C34.37 21.74 34.71 19.33 34.71 19.33C34.71 19.33 35.07 16.49 35.07 13.65L35.07 11C35.05 8.16 34.7 5.31 34.7 5.31ZM13.91 16.87L13.91 7.02L23.39 11.97L13.91 16.87Z" fill="url(#paint_linear_3_82_0)" fill-opacity="1.000000" fill-rule="nonzero"/>
</svg>
